<svg xmlns="http://www.w3.org/2000/svg" width="242" height="135" viewBox="0 0 242 135">
  <rect width="100%" height="100%" fill="#fff"/>
  <rect x="20" y="20" width="4" height="80" fill="#000"/><rect x="26" y="20" width="2" height="80" fill="#000"/><rect x="32" y="20" width="2" height="80" fill="#000"/><rect x="42" y="20" width="4" height="80" fill="#000"/><rect x="48" y="20" width="6" height="80" fill="#000"/><rect x="56" y="20" width="2" height="80" fill="#000"/><rect x="64" y="20" width="4" height="80" fill="#000"/><rect x="70" y="20" width="6" height="80" fill="#000"/><rect x="78" y="20" width="6" height="80" fill="#000"/><rect x="86" y="20" width="6" height="80" fill="#000"/><rect x="94" y="20" width="6" height="80" fill="#000"/><rect x="102" y="20" width="4" height="80" fill="#000"/><rect x="108" y="20" width="2" height="80" fill="#000"/><rect x="114" y="20" width="6" height="80" fill="#000"/><rect x="122" y="20" width="4" height="80" fill="#000"/><rect x="130" y="20" width="2" height="80" fill="#000"/><rect x="136" y="20" width="6" height="80" fill="#000"/><rect x="144" y="20" width="4" height="80" fill="#000"/><rect x="152" y="20" width="4" height="80" fill="#000"/><rect x="160" y="20" width="2" height="80" fill="#000"/><rect x="164" y="20" width="6" height="80" fill="#000"/><rect x="174" y="20" width="2" height="80" fill="#000"/><rect x="178" y="20" width="6" height="80" fill="#000"/><rect x="186" y="20" width="4" height="80" fill="#000"/><rect x="196" y="20" width="4" height="80" fill="#000"/><rect x="206" y="20" width="6" height="80" fill="#000"/><rect x="214" y="20" width="2" height="80" fill="#000"/><rect x="218" y="20" width="4" height="80" fill="#000"/>
  <text x="121.0" y="122" text-anchor="middle" font-family="Arial, sans-serif" font-size="18" font-weight="700">SUP003</text>
</svg>
